# xmcd
# 
# Track frame offsets:
#     150
#     13286
#     35796
#     61063
#     76767
#     90704
#     105530
#     124512
#     138348
#     151965
#     162844
#     177507
#     196931
#     209819
#     227233
#     246133
#     258861
#     272871
#     283212
#     298246
#     314454
# 
# Disc length: 4433
# 
# Revision: 1
# Processed by: cddbd v1.5.2PL0 Copyright (c) Steve Scherf et al.
# Submitted via: fre:ac v1.0.17
# 
DISCID=38114f15
DTITLE=Μαρίνης Γιώργος - Το νησιώτικο τραγούδι είναι εδώ 4
DYEAR=0
DGENRE=Παραδοσιακή
TTITLE0=Μαρίνης Γιώργος - Στην Αγία Μαρκέλλα [Δωδεκανήσου]
TTITLE1=Μαρίνης Γιώργος - Μέρα μέρωσε [Δωδεκανήσου]
TTITLE2=Μαρίνης Γιώργος - Δυοσμαράκι [Δωδεκανήσου]
TTITLE3=Μαρίνης Γιώργος - Μπαρμπα Θοδωρής [Δωδεκανήσου]
TTITLE4=Μαρίνης Γιώργος - Μελαχροινό μου [Δωδεκανήσου]
TTITLE5=Μαρίνης Γιώργος - Πελαγιούλα [Δωδεκανήσου]
TTITLE6=Μαρίνης Γιώργος - Προύζος [Δωδεκανήσου]
TTITLE7=Μαρίνης Γιώργος - Καπετάνιος [Δωδεκανήσου]
TTITLE8=Μαρίνης Γιώργος - Ανάμεσα Νισύρου [Δωδεκανήσου]
TTITLE9=Άνευ ερμηνευτού - Κότσαρης [Δωδεκανήσου]
TTITLE10=Μαρίνης Γιώργος - Καναρίνι μου γλυκό [Δωδεκανήσου]
TTITLE11=Μαρίνης Γιώργος - Της αυγής [Δωδεκανήσου]
TTITLE12=Μαρίνης Γιώργος - Αργειτοπούλα [Δωδεκανήσου]
TTITLE13=Μαρίνης Γιώργος - Η Σμυρνιά [Δωδεκανήσου]
TTITLE14=Άνευ ερμηνευτού - Έρι [Δωδεκανήσου]
TTITLE15=Άνευ ερμηνευτού - Του γαμπρού [Δωδεκανήσου]
TTITLE16=Άνευ ερμηνευτού - Νυφικάτος [Δωδεκανήσου]
TTITLE17=Άνευ ερμηνευτού - Συρτός πολίτικος [Δωδεκανήσου]
TTITLE18=Άνευ ερμηνευτού - Χειμαριώτικος [Δωδεκανήσου]
TTITLE19=Άνευ ερμηνευτού - Σούστα [Δωδεκανήσου]
TTITLE20=Άνευ ερμηνευτού - Ροδίτικο [Δωδεκανήσου]
EXTD=
EXTT0=
EXTT1=
EXTT2=
EXTT3=
EXTT4=
EXTT5=
EXTT6=
EXTT7=
EXTT8=
EXTT9=
EXTT10=
EXTT11=
EXTT12=
EXTT13=
EXTT14=
EXTT15=
EXTT16=
EXTT17=
EXTT18=
EXTT19=
EXTT20=
PLAYORDER=
